# xmcd
#
# Track frame offsets:
#	150
#	19958
#	39263
#	52366
#	63332
#	79942
#	94156
#	109091
#	125561
#	139949
#	150907
#	168690
#
# Disc length: 2527 seconds
#
# Revision: 1
# Processed by: cddbd v1.5.1PL0 Copyright (c) Steve Scherf et al.
# Submitted via: audiograbber 1.83.01
#
DISCID=a409dd0c
DTITLE=Anders Pelo - Ristin Luona
DYEAR=2001
DGENRE=Gospel
TTITLE0=M‰ luulin kaikki on aivan turhaa
TTITLE1=Olin juureton
TTITLE2=Taivaan valo
TTITLE3=Is‰ taivaan sua kunnioitan
TTITLE4=Eikˆ merkitse
TTITLE5=Ristin luona
TTITLE6=P‰‰tt‰nyt olen
TTITLE7=Valoja maailman
TTITLE8=Anna sataa p‰‰lleni
TTITLE9=K‰‰nn‰ katseesi Jeesukseen
TTITLE10=Riemulaulu
TTITLE11=P‰iv‰ vain ja hetki kerrallansa
EXTD=
EXTT0=
EXTT1=
EXTT2=
EXTT3=
EXTT4=
EXTT5=
EXTT6=
EXTT7=
EXTT8=
EXTT9=
EXTT10=
EXTT11=
PLAYORDER=
